# xmcd
#
# Track frame offsets: 
#        300
#        15402
#        27456
#        44605
#        59260
#        72967
#        88800
#        107482
#        121873
#        138706
#        150503
#        163457
#
# Disc length: 2420 seconds
#
# Revision: 0
# Processed by: cddbd v1.5.2PL0 Copyright (c) Steve Scherf et al.
# Submitted via: ExactAudioCopy v1.0b3
#
DISCID=a509700c
DTITLE=Aapo Ilves - Aga Ükskord
DYEAR=2013
DGENRE=Blues
TTITLE0=Kaev
TTITLE1=Keraamiku Kõrvaga Blues
TTITLE2=Aga Ükskord
TTITLE3=Saar Nimega Eesti
TTITLE4=Helikopterist
TTITLE5=Liiga Noor Ja Liiga Naine
TTITLE6=Noorus
TTITLE7=Sinu Silmist Ei Näe Ma Öösel Und
TTITLE8=Vabakutselise Blues
TTITLE9=Vahel Pattki On Armastuse Moodi
TTITLE10=Väikeste Linnade Mehed
TTITLE11=Ära Sae Pekki
EXTD=
EXTT0=
EXTT1=
EXTT2=
EXTT3=
EXTT4=
EXTT5=
EXTT6=
EXTT7=
EXTT8=
EXTT9=
EXTT10=
EXTT11=
PLAYORDER=
